<!-- Generated by IcoMoon.io -->
<svg version="1.1" xmlns="http://www.w3.org/2000/svg" width="24" height="24" viewBox="0 0 24 24">
<title>mail-envelope-closed</title>
<path d="M3.986 6.955l8.389 7.295 8.39-7.296c0.145 0.138 0.235 0.334 0.235 0.551v8.99c0 0.418-0.337 0.755-0.752 0.755h-15.745c-0.423 0-0.752-0.338-0.752-0.755v-8.99c0-0.217 0.091-0.412 0.236-0.55zM4.503 6c-0.83 0-1.503 0.671-1.503 1.496v9.009c0 0.826 0.667 1.496 1.503 1.496h15.745c0.83 0 1.503-0.671 1.503-1.496v-9.009c0-0.826-0.667-1.496-1.503-1.496h-15.745zM12.375 13.275l-7.5-6.525h15l-7.5 6.525z"></path>
</svg>
